<?xml version="1.0" standalone="no"?>
<!DOCTYPE svg PUBLIC "-//W3C//DTD SVG 20010904//EN"
 "http://www.w3.org/TR/2001/REC-SVG-20010904/DTD/svg10.dtd">
<svg version="1.0" xmlns="http://www.w3.org/2000/svg"
 width="700.000000pt" height="700.000000pt" viewBox="0 0 700.000000 700.000000"
 preserveAspectRatio="xMidYMid meet">
<metadata>
Created by potrace 1.14, written by Peter Selinger 2001-2017
</metadata>
<g transform="translate(0.000000,700.000000) scale(0.100000,-0.100000)"
fill="#000000" stroke="none">
<path d="M1773 6389 c-50 -19 -51 -23 -50 -622 0 -306 -2 -559 -4 -561 -15
-12 -149 -86 -157 -86 -6 0 -12 -3 -14 -8 -2 -6 -213 -129 -408 -239 -19 -11
-174 -99 -343 -197 -313 -179 -582 -332 -649 -369 -106 -58 -153 -127 -144
-211 6 -63 14 -83 150 -370 31 -65 56 -119 56 -121 0 -1 28 -61 61 -131 34
-71 74 -156 89 -189 15 -33 63 -134 105 -225 136 -291 147 -314 172 -370 33
-75 49 -91 78 -78 12 5 29 22 36 37 8 16 52 83 99 149 63 90 91 122 106 122
11 0 58 -27 104 -60 83 -60 103 -68 129 -51 7 5 63 84 125 177 63 95 118 169
128 170 9 1 51 -31 94 -72 79 -76 109 -89 132 -56 7 9 34 49 61 87 131 186
141 195 173 158 27 -32 268 -410 295 -465 20 -40 27 -68 27 -113 0 -58 -12
-223 -19 -275 -2 -14 -7 -59 -10 -100 -6 -69 -8 -97 -20 -220 -3 -25 -7 -74
-10 -110 -9 -116 -18 -212 -30 -327 -3 -27 -7 -77 -10 -113 -8 -85 -14 -155
-20 -210 -2 -25 -7 -76 -10 -115 -3 -38 -8 -88 -10 -110 -2 -22 -7 -74 -10
-115 -3 -41 -8 -89 -10 -106 -7 -47 -18 -194 -19 -244 l-1 -45 633 -1 c436 0
632 3 633 10 0 6 2 18 4 26 1 8 8 51 15 95 7 44 13 87 15 95 1 8 6 40 10 70 4
30 9 62 10 70 3 18 15 95 20 130 2 14 6 43 10 65 3 23 7 50 9 60 2 11 7 45 11
75 4 30 9 63 11 72 1 9 10 67 19 128 9 61 18 119 20 128 1 9 6 40 9 67 4 28
11 75 16 105 5 30 12 73 15 96 3 22 9 60 13 85 l8 44 729 -1 c654 0 737 -2
795 -17 178 -47 348 -172 417 -308 66 -129 139 -368 207 -678 38 -170 38 -171
63 -313 l17 -98 623 0 624 0 -5 43 c-3 23 -8 69 -11 102 -4 33 -8 74 -10 90
-5 40 -16 150 -20 200 -3 36 -8 79 -20 170 -2 17 -6 64 -10 105 -4 41 -8 91
-11 110 -2 19 -6 58 -9 85 -13 110 -22 192 -30 284 -2 20 -6 54 -9 76 -2 22
-7 69 -11 105 -8 88 -16 160 -20 190 -2 14 -9 79 -15 145 -6 66 -13 131 -15
145 -2 14 -6 54 -10 90 -10 107 -15 153 -20 190 -3 19 -7 62 -10 95 -3 33 -10
101 -15 150 -6 50 -13 115 -16 145 -3 30 -7 71 -10 90 -2 19 -6 67 -10 105 -3
39 -7 77 -9 85 -2 8 -7 51 -11 95 -3 44 -8 88 -10 98 -2 10 -6 48 -9 85 -8 87
-16 146 -20 151 -3 2 15 29 39 60 173 221 228 504 161 819 -15 70 -45 165 -64
201 -18 33 -55 26 -87 -15 -55 -69 -405 -509 -422 -529 -9 -11 -41 -50 -70
-88 -30 -37 -57 -67 -60 -68 -4 0 -623 -2 -1376 -2 -900 -1 -1373 1 -1381 8
-7 6 -80 107 -162 225 -83 118 -247 355 -366 525 -119 171 -222 318 -229 327
-7 10 -33 46 -56 80 -24 35 -118 169 -208 298 -90 129 -168 242 -174 250 -6 8
-42 60 -80 115 -38 55 -73 105 -77 110 -5 6 -39 54 -76 108 -38 53 -79 104
-91 112 -29 19 -74 25 -103 14z"/>
</g>
</svg>
