<!DOCTYPE svg PUBLIC "-//W3C//DTD SVG 1.1//EN" "http://www.w3.org/Graphics/SVG/1.1/DTD/svg11.dtd">
<!-- Uploaded to: SVG Repo, www.svgrepo.com, Transformed by: SVG Repo Mixer Tools -->
<svg version="1.1" id="_x32_" xmlns="http://www.w3.org/2000/svg" xmlns:xlink="http://www.w3.org/1999/xlink" width="800px" height="800px" viewBox="0 0 512 512" xml:space="preserve" fill="#000000">
<g id="SVGRepo_bgCarrier" stroke-width="0"/>
<g id="SVGRepo_tracerCarrier" stroke-linecap="round" stroke-linejoin="round"/>
<g id="SVGRepo_iconCarrier"> <style type="text/css">  .st0{fill:#000000;}  </style> <g> <path class="st0" d="M486.965,230.141c28.063-31.641,12.375-71.844,10.453-76.781s-5.25-2.859-6.984-0.25 c-1.766,2.609-40.172,50.484-40.172,50.484H248.403c0,0-103.719-148.453-107.297-153.672s-6.328-5.797-8.797-5.797 c-2.484,0-6.344,0.828-6.344,7.984c0,4.688,0,78.953,0,78.953s-101.25,58.375-115.844,66.328 c-14.547,7.984-10.172,17.891-6.578,25.578c3.156,6.828,44,94.109,45.109,96.594c1.094,2.469,3.844,2.469,4.688,0.813 c0.813-1.656,11.547-16.516,13.469-19.813c1.922-3.281,4.406-2.469,6.063-1.078c1.047,0.859,7.156,4.953,9.625,6.859 c2.484,1.938,5.219,0,6.047-1.391c0.844-1.359,13.484-20.344,14.859-22.547s3.297-1.078,4.141-0.531 c0.813,0.531,5.5,5.219,8.797,8.516c3.297,3.031,4.406,1.922,6.875-1.375c0.984-1.281,9.922-14.844,11.844-16.781 c1.906-1.922,3.281-0.828,4.672,1.094c1.375,1.938,14.313,22.031,18.984,29.438c4.672,7.453,4.125,10.734,4.125,13.484 s-13.766,151.625-13.766,151.625h93l15.688-104.031c0,0,95.203,0,101.813,0c6.594,0,20.906,2.203,35.219,16.25 c14.313,14.016,26.125,87.219,26.125,87.219h91.078L486.965,230.141z"/> </g> </g>
</svg>