<?xml version="1.0" encoding="iso-8859-1"?>
<!-- Uploaded to: SVG Repo, www.svgrepo.com, Generator: SVG Repo Mixer Tools -->
<svg fill="#F0F0F0" version="1.1" id="Layer_1" xmlns="http://www.w3.org/2000/svg" xmlns:xlink="http://www.w3.org/1999/xlink" 
	 viewBox="0 0 511.999 511.999" xml:space="preserve">
<g>
	<g>
		<path d="M466.904,100.071H45.096C20.231,100.071,0,120.301,0,145.168v221.664c0,24.867,20.231,45.096,45.096,45.096h421.806
			c24.867,0,45.096-20.231,45.096-45.096V145.168C512,120.301,491.769,100.071,466.904,100.071z M466.904,396.282H45.096
			c-16.239,0-29.451-13.212-29.451-29.451V145.168c0-16.239,13.212-29.451,29.451-29.451h421.806
			c16.239,0,29.451,13.212,29.451,29.451v221.664h0.001C496.355,383.07,483.142,396.282,466.904,396.282z"/>
	</g>
</g>
<g>
	<g>
		<path d="M48.035,140.1v79.691h95.702V140.1H48.035z M128.092,172.203h-16.116v15.646h16.116v16.297H63.68v-16.297h15.961v-15.646
			H63.68v-16.457h64.411V172.203z"/>
	</g>
</g>
<g>
	<g>
		<rect x="47.312" y="324.486" width="160.627" height="15.645"/>
	</g>
</g>
<g>
	<g>
		<rect x="224.627" y="324.486" width="55.281" height="15.645"/>
	</g>
</g>
<g>
	<g>
		<rect x="47.312" y="355.777" width="105.346" height="15.646"/>
	</g>
</g>
<g>
	<g>
		<rect x="168.304" y="355.777" width="22.947" height="15.646"/>
	</g>
</g>
<g>
	<g>
		<rect x="207.939" y="355.777" width="88.658" height="15.646"/>
	</g>
</g>
<g>
	<g>
		<rect x="47.312" y="268.163" width="16.688" height="15.645"/>
	</g>
</g>
<g>
	<g>
		<rect x="72.345" y="268.163" width="15.645" height="15.645"/>
	</g>
</g>
<g>
	<g>
		<rect x="95.291" y="268.163" width="16.688" height="15.645"/>
	</g>
</g>
<g>
	<g>
		<rect x="119.281" y="268.163" width="16.688" height="15.645"/>
	</g>
</g>
<g>
	<g>
		<rect x="152.658" y="268.163" width="15.646" height="15.645"/>
	</g>
</g>
<g>
	<g>
		<rect x="175.605" y="268.163" width="15.645" height="15.645"/>
	</g>
</g>
<g>
	<g>
		<rect x="199.594" y="268.163" width="16.689" height="15.645"/>
	</g>
</g>
<g>
	<g>
		<rect x="224.627" y="268.163" width="15.645" height="15.645"/>
	</g>
</g>
<g>
	<g>
		<rect x="255.918" y="268.163" width="15.645" height="15.645"/>
	</g>
</g>
<g>
	<g>
		<rect x="279.908" y="268.163" width="16.688" height="15.645"/>
	</g>
</g>
<g>
	<g>
		<rect x="303.898" y="268.163" width="16.688" height="15.645"/>
	</g>
</g>
<g>
	<g>
		<rect x="327.887" y="268.163" width="15.645" height="15.645"/>
	</g>
</g>
<g>
	<g>
		<rect x="351.877" y="268.163" width="15.645" height="15.645"/>
	</g>
</g>
<g>
	<g>
		<rect x="376.91" y="268.163" width="15.645" height="15.645"/>
	</g>
</g>
<g>
	<g>
		<rect x="399.856" y="268.163" width="16.688" height="15.645"/>
	</g>
</g>
<g>
	<g>
		<rect x="423.846" y="268.163" width="15.645" height="15.645"/>
	</g>
</g>
<g>
	<g>
		<rect x="336.232" y="140.913" width="128.293" height="15.645"/>
	</g>
</g>
<g>
	<g>
		<rect x="408.201" y="163.86" width="56.324" height="15.646"/>
	</g>
</g>
<g>
	<g>
		<path d="M344.245,324.231V371.9h127.726v-47.669H344.245z M456.326,356.254h-96.435v-16.378h96.435V356.254z"/>
	</g>
</g>
</svg>