<?xml version="1.0" encoding="iso-8859-1"?>
<!-- Uploaded to: SVG Repo, www.svgrepo.com, Generator: SVG Repo Mixer Tools -->
<!DOCTYPE svg PUBLIC "-//W3C//DTD SVG 1.1//EN" "http://www.w3.org/Graphics/SVG/1.1/DTD/svg11.dtd">
<svg height="800px" width="800px" version="1.1" id="Capa_1" xmlns="http://www.w3.org/2000/svg" xmlns:xlink="http://www.w3.org/1999/xlink" 
	 viewBox="0 0 491.721 491.721" xml:space="preserve">
<g>
	<path d="M232.231,99.724c27.494,0,49.861-22.368,49.861-49.862C282.092,22.368,259.725,0,232.231,0
		c-27.493,0-49.86,22.368-49.86,49.861C182.371,77.355,204.738,99.724,232.231,99.724z M232.231,8.5
		c22.807,0,41.361,18.555,41.361,41.361c0,22.808-18.555,41.362-41.361,41.362c-22.806,0-41.36-18.555-41.36-41.362
		C190.871,27.055,209.425,8.5,232.231,8.5z"/>
	<path d="M446.518,447.397c-13.074,0-23.776-9.867-34.126-19.41c-6.905-6.365-13.426-12.378-20.381-14.986
		c-4.785-1.794-9.53-2.707-14.106-2.715V248.444c8.615-9.531,8.52-24.039,0-33.452v-62.27c0-2.348-1.903-4.25-4.25-4.25
		c-2.347,0-4.25,1.902-4.25,4.25v54.099l-83.367-79.04c-14.038-13.806-36.886-22.624-53.806-22.624
		c-16.51,0-38.666,8.396-52.771,21.631c-0.027,0.024-0.06,0.041-0.086,0.066l-91.477,86.729c-7.498,7.09-9.623,17.763-6.23,26.875
		c-26.517,5.736-47.73,31.946-48.248,59.944c-0.048,0.335-0.068,0.681-0.025,1.044c0,0.682,0.094,1.34,0.233,1.985l8.477,72.101
		c0,0.007-0.002,0.013-0.002,0.02c0,0.329,0.045,0.646,0.116,0.953l2.383,20.267c0.41,11.802,25.755,17.18,49.318,17.18
		s48.908-5.379,49.318-17.181l10.947-93.412c0.139-0.643,0.232-1.3,0.232-1.979c0.04-0.347,0.025-0.676-0.017-0.995
		c-0.325-22.77-11.751-43.517-29.132-53.453l40.446-38.328l0.001,252.688c0,16.779,13.651,30.43,30.431,30.43
		c16.778,0,30.429-13.65,30.429-30.43V332.276c3.901,0.397,7.42,0.397,11.317,0.001v129.014c0,16.779,13.651,30.43,30.431,30.43
		c16.779,0,30.43-13.65,30.43-30.43L298.75,208.61l43.502,41.244c4.814,4.552,10.979,6.808,17.135,6.808
		c3.421,0,6.837-0.703,10.018-2.091v156.77c-19.274,4.942-29.803,26.299-29.803,41.64c0,13.666,0.745,23.739,10.389,28.909
		c7.921,4.247,20.48,4.69,47.247,4.69c2.58,0,5.286-0.004,8.121-0.008c3.117-0.004,6.391-0.009,9.827-0.009
		c24.63,0,43.167-17.76,43.167-29.276C458.352,452.725,455.253,447.397,446.518,447.397z M145.899,301.104l-0.063,0.536
		c-1.251,3.859-18.873,11.825-51.918,11.825c-33.065,0-50.696-7.966-51.946-11.825l-0.063-0.535
		c0.339-3.721,18.016-12.139,52.009-12.139C127.89,288.966,145.557,297.382,145.899,301.104z M134.77,395.985
		c-0.019,0.164-0.024,0.279-0.024,0.445c-0.626,2.484-14.126,9.022-40.828,9.022s-40.202-6.537-40.823-8.972
		c0-0.166-0.01-0.332-0.029-0.496l-1.903-16.182h49.508c2.347,0,4.25-1.902,4.25-4.25c0-2.348-1.903-4.25-4.25-4.25H50.164
		l-6.799-57.814c11.583,5.811,31.538,8.477,50.553,8.477c19.009,0,38.958-2.695,50.534-8.527L134.77,395.985z M144.763,289.39
		c-11.527-6.038-31.666-8.924-50.845-8.924c-19,0-38.938,2.859-50.524,8.797c5.011-20.376,22.043-37.604,42.234-40.907
		c0.23-0.038,0.448-0.106,0.662-0.178c0.202,0.23,0.403,0.46,0.615,0.685c4.901,5.184,11.515,7.8,18.141,7.8
		c4.597,0,9.2-1.262,13.242-3.796C131.735,259.191,141.535,273.01,144.763,289.39z M116.342,243.678
		c-6.591,6.232-17.026,5.939-23.261-0.654c-6.232-6.594-5.938-17.029,0.659-23.268l72.122-68.401
		c-0.096,0.959-0.15,1.926-0.15,2.902v42.637L116.342,243.678z M272.913,482.733V426.55c0-2.348-1.903-4.25-4.25-4.25
		c-2.347,0-4.25,1.902-4.25,4.25v56.315c-10.233-1.85-18.022-10.816-18.022-21.574v-133.9c0-1.258-0.557-2.45-1.52-3.258
		c-0.771-0.646-1.739-0.992-2.73-0.992c-0.248,0-0.497,0.022-0.744,0.065c-3.242,0.577-6.325,0.869-9.163,0.869
		c-2.836,0-5.919-0.293-9.166-0.87c-1.238-0.222-2.51,0.12-3.474,0.927c-0.964,0.808-1.521,2-1.521,3.258v133.901
		c0,12.092-9.837,21.93-21.929,21.93c-1.983,0-3.904-0.27-5.732-0.765c0-0.016,0.004-0.029,0.004-0.044V359.419
		c0-2.348-1.903-4.25-4.25-4.25c-2.347,0-4.25,1.902-4.25,4.25v118.54c-4.709-4.025-7.703-10.002-7.703-16.668l-0.001-307.034
		c0-22.02,35.637-40.6,58.019-40.6s58.018,18.58,58.018,40.6l0.001,307.034C290.251,471.808,282.807,480.616,272.913,482.733z
		 M348.095,243.682l-49.345-46.785v-42.64c0-0.941-0.049-1.874-0.138-2.799l70.792,67.076v26.221
		C363.108,249.594,354.04,249.302,348.095,243.682z M440.528,469.712c-4.193,3.119-13.061,8.352-25.344,8.352
		c-3.44,0-6.718,0.005-9.839,0.009c-2.831,0.004-5.533,0.008-8.109,0.008c-22.625,0-36.826-0.248-43.23-3.682
		c-4.636-2.485-5.905-7.089-5.905-21.418c0-14.278,11.315-34.195,29.744-34.195c3.571,0,7.333,0.732,11.181,2.175
		c5.399,2.024,11.328,7.49,17.604,13.276c11.012,10.153,23.494,21.661,39.888,21.661c3.334,0,3.334,0.974,3.334,1.39
		C449.852,460.015,446.649,465.158,440.528,469.712z"/>
	<path d="M271.662,149.314c-2.347,0-4.25,1.902-4.25,4.25v109.494c0,2.348,1.903,4.25,4.25,4.25c2.347,0,4.25-1.902,4.25-4.25
		V153.564C275.912,151.216,274.009,149.314,271.662,149.314z"/>
	<path d="M268.663,354.804c-2.347,0-4.25,1.902-4.25,4.25v41.997c0,2.348,1.903,4.25,4.25,4.25c2.347,0,4.25-1.902,4.25-4.25
		v-41.997C272.913,356.706,271.01,354.804,268.663,354.804z"/>
</g>
</svg>