<?xml version="1.0" encoding="iso-8859-1"?>
<!-- Uploaded to: SVG Repo, www.svgrepo.com, Generator: SVG Repo Mixer Tools -->
<svg fill="#000000" height="800px" width="800px" version="1.1" id="Layer_1" xmlns="http://www.w3.org/2000/svg" xmlns:xlink="http://www.w3.org/1999/xlink" 
	 viewBox="0 0 512 512" xml:space="preserve">
<g transform="translate(1 1)">
	<g>
		<path d="M502.467,186.733h-34.133c-3.413,0-6.827,2.56-7.68,5.973l-23.893,70.827h-23.04l-23.04-38.4
			c-1.707-2.56-4.267-4.267-7.68-4.267h-34.133v-25.6c0-5.12-3.413-8.533-8.533-8.533H280.6V152.6h25.6
			c5.12,0,8.533-3.413,8.533-8.533v-51.2c0-5.12-3.413-8.533-8.533-8.533H152.6c-5.12,0-8.533,3.413-8.533,8.533v51.2
			c0,5.12,3.413,8.533,8.533,8.533h25.6v34.133h-68.267c-2.56,0-4.267,0.853-5.973,2.56s-2.56,3.413-2.56,5.973v25.6H41.667
			c-5.12,0-8.533,3.413-8.533,8.533v51.2H16.067V255c0-5.12-3.413-8.533-8.533-8.533S-1,249.88-1,255v68.267
			c0,5.12,3.413,8.533,8.533,8.533s8.533-3.413,8.533-8.533v-25.6h17.067v68.267c0,5.12,3.413,8.533,8.533,8.533h64l31.573,47.787
			c1.707,1.707,4.267,3.413,6.827,3.413H383c3.413,0,5.973-1.707,7.68-5.12l23.04-46.08h23.893l23.04,46.08
			c1.707,3.413,4.267,5.12,7.68,5.12h34.133c5.12,0,8.533-3.413,8.533-8.533V195.267C511,190.147,507.587,186.733,502.467,186.733z
			 M161.133,101.4h136.533v34.133h-25.6h-85.333h-25.6V101.4z M195.267,152.6h68.267v34.133h-68.267V152.6z M50.2,357.4V237.933
			h51.2V357.4H50.2z M377.027,408.6H148.333l-29.867-45.204V229.4v-25.6h68.267h85.333H331.8v25.6c0,5.12,3.413,8.533,8.533,8.533
			h37.547l22.187,36.978v87.609L377.027,408.6z M417.133,357.4v-76.8H434.2v76.8H417.133z M493.933,408.6h-20.48l-22.187-42.789
			v-93.714l23.04-68.297h19.627V408.6z"/>
	</g>
</g>
</svg>