<?xml version="1.0" encoding="utf-8"?><!-- Uploaded to: SVG Repo, www.svgrepo.com, Generator: SVG Repo Mixer Tools -->
<svg width="800px" height="800px" viewBox="0 0 64 64" id="Layer_1" data-name="Layer 1" xmlns="http://www.w3.org/2000/svg"><path d="M47.61,16.34l-2.77,3.55a1.18,1.18,0,0,1-.91.44h-3.8a1.21,1.21,0,0,1-.58-.16l-1.43-.83a1.14,1.14,0,0,0-1.24.05l-2.15,1.54a1.14,1.14,0,0,1-1.31,0L29.14,18a1.16,1.16,0,0,1-.26-1.65L34.7,8.84" fill="none" stroke="#000000" stroke-linecap="round" stroke-miterlimit="10" stroke-width="3"/><circle cx="33.91" cy="24.72" r="16.54" fill="none" stroke="#000000" stroke-linecap="round" stroke-miterlimit="10" stroke-width="3"/><path d="M49.17,40.56A21.72,21.72,0,0,1,18.39,9.91" fill="none" stroke="#000000" stroke-linecap="round" stroke-miterlimit="10" stroke-width="3"/><path d="M20.1,33.83l5.43-4.64a1.16,1.16,0,0,1,1.41-.09l2.42,1.66a1.13,1.13,0,0,0,1.12.1l3.7-2.5a1.13,1.13,0,0,1,1.16.12l4,2.31a1.15,1.15,0,0,1,.21,1.63l-2.34,4.06a1.15,1.15,0,0,1-1.35.35l-3.63-1a1.15,1.15,0,0,0-1.59.94l-.42,4.07" fill="none" stroke="#000000" stroke-linecap="round" stroke-miterlimit="10" stroke-width="3"/><line x1="45.4" y1="36.62" x2="51.79" y2="43.29" fill="none" stroke="#000000" stroke-linecap="round" stroke-miterlimit="10" stroke-width="3"/><line x1="21.78" y1="13.47" x2="15.33" y2="6.7" fill="none" stroke="#000000" stroke-linecap="round" stroke-miterlimit="10" stroke-width="3"/><line x1="33.93" y1="46.8" x2="33.93" y2="52.14" fill="none" stroke="#000000" stroke-linecap="round" stroke-miterlimit="10" stroke-width="3"/><path d="M41.12,57.3H26.33a1.14,1.14,0,0,1-1.06-1.57l2.51-2.87a1.17,1.17,0,0,1,1.07-.72h9.76a1.15,1.15,0,0,1,1.06.72l2.52,2.87A1.15,1.15,0,0,1,41.12,57.3Z" fill="none" stroke="#000000" stroke-linecap="round" stroke-miterlimit="10" stroke-width="3"/></svg>