<?xml version="1.0" encoding="iso-8859-1"?>
<!-- Uploaded to: SVG Repo, www.svgrepo.com, Generator: SVG Repo Mixer Tools -->
<!DOCTYPE svg PUBLIC "-//W3C//DTD SVG 1.1//EN" "http://www.w3.org/Graphics/SVG/1.1/DTD/svg11.dtd">
<svg fill="#000000" version="1.1" id="Capa_1" xmlns="http://www.w3.org/2000/svg" xmlns:xlink="http://www.w3.org/1999/xlink" 
	 width="800px" height="800px" viewBox="0 0 430.453 430.453"
	 xml:space="preserve">
<g>
	<g>
		<path d="M184.663,326.499h-48.916c0.17-0.217,0.352-0.401,0.538-0.616c3.895-4.738,11.259-11.535,21.906-20.214
			c11.122-9.106,18.796-15.563,23.441-19.753c4.918-4.396,9.749-10.521,14.384-18.178c4.812-7.938,7.257-16.86,7.257-26.553
			c0-6.215-1.171-12.291-3.477-18.043c-2.321-5.77-5.613-10.921-9.764-15.312c-4.17-4.399-9.074-7.914-14.647-10.46
			c-8.257-3.684-18.35-5.553-29.965-5.553c-9.674,0-18.259,1.461-25.55,4.343c-7.337,2.933-13.476,6.831-18.26,11.579
			c-4.813,4.768-8.489,10.182-10.937,16.081c-2.43,5.898-3.66,11.677-3.66,17.15c0,5.198,1.6,9.414,4.737,12.553
			c3.153,3.168,7.124,4.768,11.813,4.768c5.357,0,9.536-1.812,12.447-5.354c2.443-2.984,4.55-7.045,6.441-12.428
			c2.265-6.461,3.048-7.783,3.2-8.029c4.722-7.223,10.97-10.729,19.107-10.729c3.809,0,7.386,0.867,10.599,2.585
			c3.187,1.697,5.646,4.021,7.508,7.099c1.839,3.074,2.753,6.461,2.753,10.397c0,3.66-0.923,7.506-2.74,11.442
			c-1.875,4.062-4.673,8.094-8.32,12.029c-3.771,4.031-8.569,8.121-14.169,12.092c-3.523,2.338-9.108,7.074-17.093,14.431
			c-7.72,7.104-16.319,15.563-26.315,25.935c-2.583,2.77-4.983,6.522-7.125,11.229c-2.197,4.858-3.278,8.766-3.278,11.997
			c0,5.105,1.927,9.628,5.726,13.41c3.802,3.756,9.017,5.633,15.491,5.633h80.021c5.873,0,10.443-1.631,13.553-4.891
			c3.07-3.231,4.628-7.17,4.628-11.756c0-5.166-2.066-9.504-5.987-12.58C196.335,327.943,191.166,326.499,184.663,326.499z"/>
		<path d="M339.65,280.137c-2.776-6.74-6.673-12.676-11.594-17.629c-4.936-4.982-10.705-8.894-17.164-11.662
			c-12.877-5.566-27.709-6.091-44.351,1.047l4.287-24.373h48.34c6.305,0,11.255-1.49,14.688-4.416
			c3.629-3.037,5.55-7.237,5.55-12.137c0-6.298-2.72-16.875-20.899-16.875h-57.395c-7.307,0-12.784,1.834-16.291,5.435
			c-3.368,3.444-5.567,8.581-6.722,15.656l-9.137,52.063c-1.244,7.104-1.244,7.659-1.244,8.092c0,4.367,1.8,8.274,5.367,11.628
			c6.688,6.247,14.92,7.506,26.966-1.601c4.892-3.69,8.644-6.275,11.163-7.688c1.399-0.832,4.538-1.783,11.418-1.783
			c4.396,0,8.26,1.014,11.814,3.104c3.46,2.028,6.274,5.199,8.365,9.383c2.169,4.367,3.278,9.781,3.278,16.089
			c0,5.848-1.031,11.139-3.062,15.66c-2.018,4.463-4.749,7.846-8.399,10.338c-7.463,5.141-18.441,4.983-26.643-0.984
			c-4.335-3.139-7.861-7.689-10.428-13.414c-4.523-10.703-11.857-12.951-17.213-12.951c-4.682,0-8.631,1.725-11.752,5.076
			c-3.047,3.291-4.581,6.893-4.581,10.734c0,5.356,1.812,11.262,5.534,18.121c3.705,6.831,9.979,12.86,18.645,17.969
			c8.656,5.139,19.951,7.754,33.581,7.754c12.223,0,23.226-2.74,32.65-8.155c9.491-5.412,16.864-12.859,21.878-22.058
			c5.028-9.166,7.567-19.443,7.567-30.61C343.87,294.225,342.454,286.872,339.65,280.137z"/>
		<g>
			<path d="M377.801,42.285h-25.244v16.661v11.69c0,1.076-0.229,2.09-0.321,3.152l0,0c-1.627,19.406-17.751,34.75-37.575,34.75
				c-19.828,0-35.951-15.344-37.578-34.75l0,0c-0.095-1.062-0.325-2.076-0.325-3.152v-11.69V42.285H153.693v16.661v11.69
				c0,1.076-0.228,2.09-0.32,3.152l0,0c-1.633,19.406-17.752,34.75-37.576,34.75c-19.832,0-35.952-15.344-37.578-34.75l0,0
				c-0.097-1.062-0.328-2.076-0.328-3.152v-11.69V42.285h-25.24c-17.396,0-31.505,14.105-31.505,31.504v325.16
				c0,17.381,14.108,31.504,31.505,31.504h325.149c17.401,0,31.506-14.123,31.506-31.504V73.789
				C409.307,56.39,395.203,42.285,377.801,42.285z M52.651,398.949V154.682h325.149v244.267H52.651z"/>
		</g>
		<path d="M137.943,22.15c0-12.238-9.919-22.15-22.146-22.15c-12.232,0-22.15,9.912-22.15,22.15v48.486
			c0,12.234,9.918,22.15,22.15,22.15c12.228,0,22.146-9.916,22.146-22.15V22.15z"/>
		<path d="M336.807,22.15C336.807,9.912,326.889,0,314.66,0c-12.23,0-22.149,9.912-22.149,22.15v48.486
			c0,12.234,9.919,22.15,22.149,22.15c12.229,0,22.146-9.916,22.146-22.15V22.15z"/>
	</g>
</g>
</svg>
