<?xml version="1.0" encoding="iso-8859-1"?>
<!-- Uploaded to: SVG Repo, www.svgrepo.com, Generator: SVG Repo Mixer Tools -->
<!DOCTYPE svg PUBLIC "-//W3C//DTD SVG 1.1//EN" "http://www.w3.org/Graphics/SVG/1.1/DTD/svg11.dtd">
<svg fill="#000000" height="800px" width="800px" version="1.1" id="Capa_1" xmlns="http://www.w3.org/2000/svg" xmlns:xlink="http://www.w3.org/1999/xlink" 
	 viewBox="0 0 436.405 436.405" xml:space="preserve">
<g>
	<path d="M424.287,302.931L303.836,182.48c-6.913-6.913-15.838-11.077-25.455-11.957c-0.863-9.287-4.84-18.337-11.935-25.433
		c-4.611-4.612-10.05-7.902-15.841-9.881c0.626-1.918,1.158-3.868,1.595-5.847c1.936,0.883,4.049,1.367,6.217,1.367
		c3.979,0,7.793-1.58,10.607-4.394l31.367-31.368c5.858-5.857,5.858-15.355,0-21.213L233.069,6.432
		c-2.813-2.813-6.628-4.394-10.606-4.394c-3.979,0-7.793,1.58-10.606,4.394L180.488,37.8c-4.551,4.551-5.549,11.292-3.029,16.824
		c-11.514,2.546-22.092,8.297-30.632,16.837l-12.613,12.613c-8.54,8.539-14.291,19.117-16.837,30.632
		c-5.531-2.521-12.273-1.521-16.824,3.029l-31.368,31.367c-2.813,2.813-4.394,6.628-4.394,10.606s1.581,7.794,4.394,10.606
		l67.322,67.322c2.929,2.93,6.767,4.394,10.606,4.394c3.838,0,7.678-1.465,10.606-4.394l31.368-31.367
		c2.813-2.813,4.394-6.628,4.394-10.606c0-2.168-0.484-4.281-1.367-6.217c1.979-0.438,3.93-0.97,5.848-1.596
		c1.979,5.791,5.269,11.229,9.88,15.841c7.1,7.101,16.158,11.078,25.453,11.938c0.86,9.294,4.837,18.352,11.938,25.453
		l120.451,120.451c8.078,8.079,18.69,12.118,29.301,12.118c10.612,0,21.224-4.039,29.302-12.118
		C440.444,345.377,440.444,319.088,424.287,302.931z M222.462,38.251l46.109,46.109l-10.154,10.155l-46.109-46.109L222.462,38.251z
		 M155.427,105.287l12.614-12.613c6.158-6.158,14.345-9.55,23.054-9.55s16.896,3.392,23.055,9.55s9.55,14.346,9.55,23.055
		s-3.392,16.896-9.55,23.055l-12.614,12.613c-6.158,6.158-14.345,9.55-23.054,9.55c-8.708,0-16.896-3.392-23.054-9.55
		c-6.158-6.158-9.55-14.346-9.55-23.055S149.269,111.446,155.427,105.287z M147.114,205.819l-46.109-46.109l10.154-10.154
		l46.109,46.109L147.114,205.819z M229.056,166.303L229.056,166.303c4.46-4.46,11.717-4.46,16.176,0c4.46,4.46,4.46,11.717,0,16.177
		c-4.46,4.46-11.717,4.46-16.177,0C224.596,178.02,224.596,170.763,229.056,166.303z M403.074,340.322
		c-4.46,4.459-11.718,4.459-16.177,0L266.446,219.87c-4.46-4.46-4.46-11.718,0-16.178c2.16-2.16,5.033-3.351,8.088-3.351
		c3.056,0,5.928,1.19,8.089,3.351l120.451,120.451C407.534,328.604,407.534,335.862,403.074,340.322z"/>
	<path d="M245.936,347.534h-10.062v-23.838c0-5.522-4.477-10-10-10H35.064c-5.523,0-10,4.478-10,10v23.838H15
		c-8.284,0-15,6.716-15,15v56.833c0,8.284,6.716,15,15,15h230.936c8.284,0,15-6.716,15-15v-56.833
		C260.936,354.249,254.22,347.534,245.936,347.534z M45.064,333.696h170.81v13.838H45.064V333.696z M230.936,404.367H30v-26.833
		h200.936V404.367z"/>
</g>
</svg>