<?xml version="1.0" encoding="utf-8"?>

<!DOCTYPE svg PUBLIC "-//W3C//DTD SVG 1.1//EN" "http://www.w3.org/Graphics/SVG/1.1/DTD/svg11.dtd">
<!-- Uploaded to: SVG Repo, www.svgrepo.com, Generator: SVG Repo Mixer Tools -->
<svg height="800px" width="800px" version="1.1" id="_x32_" xmlns="http://www.w3.org/2000/svg" xmlns:xlink="http://www.w3.org/1999/xlink" 
	 viewBox="0 0 512 512"  xml:space="preserve">
<style type="text/css">
	.st0{fill:#000000;}
</style>
<g>
	<path class="st0" d="M480.077,132.02c-23.996-41.568-76.299-41.765-128.908-27.608C344.548,61.842,323.763,0,260.719,0
		c-47.99,0-74.289,45.078-88.348,97.686C132.215,82.225,68.165,69.275,36.641,123.98c-23.991,41.568,1.911,86.942,40.46,125.392
		c-33.529,27.011-76.701,76-45.176,130.608c23.996,41.568,76.299,41.765,128.804,27.608C167.454,450.156,188.233,512,251.283,512
		c47.986,0,74.289-45.176,88.343-97.784c40.26,15.559,104.206,28.411,135.73-26.196c23.996-41.471-1.906-86.843-40.455-125.294
		C468.43,235.617,511.596,186.627,480.077,132.02z M446.743,375.166c-20.882,36.04-70.573,24.892-101.396,13.549
		c6.828-35.736,8.936-72.284,8.936-98.382h-18.672c0,22.991-3.715,56.52-11.848,89.147c-2.107,8.334-4.515,16.569-7.225,24.598
		c-13.956,41.862-36.245,76.696-68.367,76.696c-41.662,0-56.922-48.588-62.447-80.911c34.436-11.952,67.064-28.412,89.652-41.559
		l-9.338-16.166c-19.877,11.44-50.798,25-83.122,34.235c-8.334,2.412-16.667,4.52-25.001,6.118
		c-43.167,8.844-84.426,7.03-100.49-20.882c-20.784-36.039,13.554-73.48,38.853-94.568c27.608,23.794,58.122,43.872,80.814,56.921
		l9.338-16.157c-19.878-11.45-47.089-31.529-71.279-55.019c-6.123-5.922-12.049-12.039-17.672-18.373
		c-29.314-33.029-48.289-69.667-32.226-97.578c20.785-36.04,70.476-24.892,101.3-13.549c-6.828,35.735-8.937,72.284-8.937,98.382
		h18.775c0-22.991,3.711-56.52,11.842-89.147c2.108-8.334,4.52-16.667,7.231-24.696c13.956-41.862,36.24-76.598,68.367-76.598
		c41.662,0,56.921,48.589,62.441,80.912c-34.43,11.95-67.161,28.412-89.75,41.559l9.436,16.166c19.78-11.44,50.701-25,83.128-34.235
		c8.23-2.412,16.564-4.52,24.897-6.118c43.27-8.844,84.529-7.03,100.593,20.882c20.779,36.039-13.554,73.48-38.853,94.568
		c-27.608-23.794-58.226-43.872-80.814-56.921l-9.338,16.156c19.775,11.452,47.084,31.53,71.177,55.02
		c6.225,5.921,12.146,12.148,17.769,18.47C443.832,310.617,462.807,347.254,446.743,375.166z"/>
	<path class="st0" d="M256.003,220.02c-19.868,0-35.975,16.098-35.975,35.97c0,19.872,16.108,35.98,35.975,35.98
		c19.864,0,35.971-16.108,35.971-35.98C291.974,236.117,275.867,220.02,256.003,220.02z"/>
</g>
</svg>