<?xml version="1.0" encoding="iso-8859-1"?>
<!-- Uploaded to: SVG Repo, www.svgrepo.com, Generator: SVG Repo Mixer Tools -->
<!DOCTYPE svg PUBLIC "-//W3C//DTD SVG 1.1//EN" "http://www.w3.org/Graphics/SVG/1.1/DTD/svg11.dtd">
<svg fill="#000000" version="1.1" id="Capa_1" xmlns="http://www.w3.org/2000/svg" xmlns:xlink="http://www.w3.org/1999/xlink" 
	 width="800px" height="800px" viewBox="0 0 414.635 414.636"
	 xml:space="preserve">
<g>
	<path d="M20.538,137.133C2.524,119.13-4.134,93.125,2.535,68.997l33.801,33.792c1.082,1.082,2.483,1.65,4.092,1.57l39.169-2.089
		c2.743-0.146,4.935-2.338,5.081-5.082l2.089-39.173c0.082-1.522-0.488-3.011-1.57-4.086L51.41,20.132
		c6.047-1.666,12.286-2.509,18.646-2.509c18.701,0,36.278,7.278,49.497,20.496c18.911,18.916,25.362,47.497,16.438,72.81
		c-0.124,0.354-0.286,0.698-0.43,1.042c-0.184,0.425-0.365,0.85-0.533,1.265c-3.59,9.181-8.803,17.227-15.486,23.903
		c-6.149,6.149-13.391,11.063-21.619,14.654c-0.42,0.193-0.846,0.349-1.268,0.512l-0.963,0.37c-8.242,3.246-16.921,4.89-25.807,4.89
		C51.226,157.559,33.708,150.304,20.538,137.133z"/>
	<path d="M106.985,159.394c0.419-0.215,0.811-0.467,1.231-0.688c0.748-0.404,1.478-0.825,2.21-1.241
		c1.328-0.764,2.622-1.56,3.9-2.389c0.711-0.461,1.425-0.929,2.118-1.417c1.307-0.917,2.575-1.876,3.824-2.867
		c0.575-0.456,1.176-0.897,1.74-1.37c1.775-1.49,3.494-3.031,5.139-4.677c1.748-1.748,3.381-3.596,4.956-5.499
		c0.461-0.559,0.897-1.144,1.349-1.719c1.118-1.435,2.183-2.902,3.205-4.42c0.419-0.625,0.843-1.241,1.247-1.881
		c1.194-1.887,2.318-3.816,3.359-5.817c0.118-0.236,0.262-0.457,0.38-0.692c0.04-0.071,0.082-0.129,0.113-0.2l56.985,56.98
		l-34.827,34.827L106.985,159.394z"/>
	<path d="M411.968,231.116l-77.04-108.022c-0.174-0.244-0.368-0.47-0.578-0.678l-34.467-34.467c-0.374-0.383-0.81-0.707-1.286-0.953
		l-50.39-26.581l-10.436-15.068l11.092-35.809l12.902,2.575l98.722,83.688l54.147,134.254L411.968,231.116z"/>
	<g>
		<path d="M367.001,285.584c-13.224-13.229-30.798-20.503-49.501-20.503c-18.7,0-36.279,7.274-49.502,20.503
			c-5.991,5.985-10.824,13.05-14.369,20.982l-0.457,1.091c-0.23,0.53-0.462,1.055-0.654,1.597c-0.122,0.341-0.273,0.666-0.457,0.972
			c-9.78,25.754-3.576,54.855,15.927,74.373c13.229,13.219,30.808,20.498,49.513,20.498c18.703,0,36.277-7.279,49.501-20.498
			c13.229-13.229,20.51-30.81,20.51-49.513C387.511,316.388,380.23,298.802,367.001,285.584z M357.924,327.033l-9.442,35.234
			c-0.499,1.857-1.938,3.307-3.796,3.8l-35.238,9.455c-0.457,0.12-0.93,0.185-1.392,0.185c-1.407,0-2.782-0.558-3.8-1.576
			l-25.797-25.795c-1.359-1.355-1.895-3.34-1.391-5.197l9.438-35.234c0.499-1.857,1.942-3.307,3.802-3.8l35.233-9.439
			c1.869-0.504,3.832,0.037,5.191,1.392l25.797,25.785C357.888,323.202,358.423,325.176,357.924,327.033z"/>
		<path d="M279.232,262.004l-37.964-37.975l-34.78,34.878l39.115,39.123c3.943-8.468,9.239-16.085,15.739-22.582
			C266.659,270.14,272.655,265.637,279.232,262.004z"/>
		<path d="M309.573,112.842l-13.496-13.491l-84.395,84.397c-0.273,0.698-0.657,1.349-1.203,1.893l-42.43,42.431
			c-0.56,0.556-1.21,0.935-1.903,1.202l-94.471,94.474c-0.131,0.397-0.313,0.771-0.543,1.122c-4.956,7.56-3.903,17.69,2.509,24.096
			c6.304,6.309,16.762,7.348,24.168,2.479c0.344-0.231,0.714-0.421,1.097-0.559l1.843-1.847c0.055-0.052,0.118-0.116,0.193-0.179
			c2.597-2.609,128.955-129.272,222.006-222.638L309.573,112.842z"/>
		<polygon points="296.092,313.68 288.259,342.929 309.668,364.33 338.907,356.487 346.74,327.254 325.333,305.853 		"/>
	</g>
</g>
</svg>